# xmcd
#
# Track frame offsets: 
#        150
#        15760
#        38222
#        46835
#        62972
#        76797
#        89025
#        100135
#        114637
#        135275
#        154190
#
# Disc length: 2340 seconds
#
# Revision: 0
# Processed by: cddbd v1.5.1PL0 Copyright (c) Steve Scherf et al.
# Submitted via: ExactAudioCopy v0.95a5
#
DISCID=7e09220b
DTITLE=The Aces - The Aces
DYEAR=1900
DGENRE=Blues
TTITLE0=The Aces' Shuffle
TTITLE1=That's Allright
TTITLE2=Baby Please Don't Go
TTITLE3=Money Marbles And Chalk
TTITLE4=You Are So Fine
TTITLE5=You Upset Me Baby
TTITLE6=Dust My Broom
TTITLE7=I'll Take Three
TTITLE8=Blues With A Feeling
TTITLE9=It's All Your Fault
TTITLE10=L M Blues
EXTD=
EXTT0=
EXTT1=
EXTT2=
EXTT3=
EXTT4=
EXTT5=
EXTT6=
EXTT7=
EXTT8=
EXTT9=
EXTT10=
PLAYORDER=
